<?xml version="1.0" encoding="UTF-8" standalone="no"?>
<!DOCTYPE svg PUBLIC "-//W3C//DTD SVG 1.1//EN"
 "http://www.w3.org/Graphics/SVG/1.1/DTD/svg11.dtd">
<!-- Generated by graphviz version 2.38.0 (20140413.2041)
 -->
<!-- Title: snakemake_dag Pages: 1 -->
<svg width="158pt" height="116pt"
 viewBox="0.00 0.00 158.00 116.00" xmlns="http://www.w3.org/2000/svg" xmlns:xlink="http://www.w3.org/1999/xlink">
<g id="graph0" class="graph" transform="scale(1 1) rotate(0) translate(4 112)">
<title>snakemake_dag</title>
<polygon fill="white" stroke="none" points="-4,4 -4,-112 154,-112 154,4 -4,4"/>
<!-- 0 -->
<g id="node1" class="node"><title>0</title>
<path fill="none" stroke="#59d856" stroke-width="2" stroke-dasharray="5,2" d="M90,-36C90,-36 60,-36 60,-36 54,-36 48,-30 48,-24 48,-24 48,-12 48,-12 48,-6 54,-0 60,-0 60,-0 90,-0 90,-0 96,-0 102,-6 102,-12 102,-12 102,-24 102,-24 102,-30 96,-36 90,-36"/>
<text text-anchor="middle" x="75" y="-15.5" font-family="sans" font-size="10.00">all</text>
</g>
<!-- 1 -->
<g id="node2" class="node"><title>1</title>
<path fill="none" stroke="#d85656" stroke-width="2" stroke-dasharray="5,2" d="M54,-108C54,-108 12,-108 12,-108 6,-108 0,-102 0,-96 0,-96 0,-84 0,-84 0,-78 6,-72 12,-72 12,-72 54,-72 54,-72 60,-72 66,-78 66,-84 66,-84 66,-96 66,-96 66,-102 60,-108 54,-108"/>
<text text-anchor="middle" x="33" y="-93" font-family="sans" font-size="10.00">sort</text>
<text text-anchor="middle" x="33" y="-82" font-family="sans" font-size="10.00">dataset: B</text>
</g>
<!-- 1&#45;&gt;0 -->
<g id="edge1" class="edge"><title>1&#45;&gt;0</title>
<path fill="none" stroke="grey" stroke-width="2" d="M43.382,-71.6966C48.2647,-63.5589 54.1866,-53.689 59.5792,-44.7013"/>
<polygon fill="grey" stroke="grey" stroke-width="2" points="62.5936,-46.48 64.7374,-36.1043 56.5912,-42.8785 62.5936,-46.48"/>
</g>
<!-- 2 -->
<g id="node3" class="node"><title>2</title>
<path fill="none" stroke="#d85656" stroke-width="2" stroke-dasharray="5,2" d="M138,-108C138,-108 96,-108 96,-108 90,-108 84,-102 84,-96 84,-96 84,-84 84,-84 84,-78 90,-72 96,-72 96,-72 138,-72 138,-72 144,-72 150,-78 150,-84 150,-84 150,-96 150,-96 150,-102 144,-108 138,-108"/>
<text text-anchor="middle" x="117" y="-93" font-family="sans" font-size="10.00">sort</text>
<text text-anchor="middle" x="117" y="-82" font-family="sans" font-size="10.00">dataset: A</text>
</g>
<!-- 2&#45;&gt;0 -->
<g id="edge2" class="edge"><title>2&#45;&gt;0</title>
<path fill="none" stroke="grey" stroke-width="2" d="M106.618,-71.6966C101.735,-63.5589 95.8134,-53.689 90.4208,-44.7013"/>
<polygon fill="grey" stroke="grey" stroke-width="2" points="93.4088,-42.8785 85.2626,-36.1043 87.4064,-46.48 93.4088,-42.8785"/>
</g>
</g>
</svg>
